# xmcd CD database file
#
# Track frame offsets:
#	150
#	9538
#	24099
#	42992
#	62885
#	87903
#	102132
#	129194
#	144823
#	176513
#	194671
#	212764
#	232638
#
# Disc length: 3235 seconds
#
# Revision: 0
# Processed by: cddbd v1.5PL3 Copyright (c) Steve Scherf et al.
# Submitted via: CDex 1.51
#
DISCID=9d0ca10d
DTITLE=Sprinkhuizen, Fennis and Didderen - Vleesch en Visch
DYEAR=1996
DGENRE=Jazz
TTITLE0=Aufmachen
TTITLE1=The Sphinx
TTITLE2=In Walked Bud
TTITLE3=Return of the Flying Hippie
TTITLE4=Four in One
TTITLE5=Stuffy
TTITLE6=Hoe Down
TTITLE7=Das Meer
TTITLE8=How 'bout This
TTITLE9=De List
TTITLE10=Mary
TTITLE11=Hardrock
TTITLE12=Slaapliedje
EXTD=YEAR: 1996
EXTT0=
EXTT1=
EXTT2=
EXTT3=
EXTT4=
EXTT5=
EXTT6=
EXTT7=
EXTT8=
EXTT9=
EXTT10=
EXTT11=
EXTT12=
PLAYORDER=
